<svg width="11" height="12" viewBox="0 0 11 12" fill="none" xmlns="http://www.w3.org/2000/svg">
<path d="M5.9184 1.85664V1.41867C5.9184 1.30815 5.8745 1.20216 5.79635 1.12401C5.7182 1.04586 5.61221 1.00195 5.50169 1.00195C5.39117 1.00195 5.28517 1.04586 5.20702 1.12401C5.12887 1.20216 5.08497 1.30815 5.08497 1.41867V1.85664C4.24602 1.93185 3.44411 2.23719 2.76759 2.73901C2.09108 3.24083 1.56621 3.91965 1.25082 4.70069C0.935433 5.48173 0.841761 6.33467 0.980126 7.16555C1.11849 7.99642 1.48353 8.77297 2.03501 9.40965C1.81722 9.51739 1.63522 9.6858 1.51094 9.89459C1.38665 10.1034 1.32538 10.3437 1.33451 10.5865C1.33451 10.697 1.37841 10.803 1.45656 10.8811C1.53471 10.9593 1.6407 11.0032 1.75122 11.0032C1.86174 11.0032 1.96774 10.9593 2.04589 10.8811C2.12404 10.803 2.16794 10.697 2.16794 10.5865C2.16448 10.458 2.21059 10.3332 2.29672 10.2378C2.38284 10.1425 2.50236 10.0839 2.6305 10.0743C2.65916 10.0689 2.68712 10.0602 2.71384 10.0485C3.51208 10.6676 4.49358 11.0036 5.50377 11.0036C6.51396 11.0036 7.49546 10.6676 8.2937 10.0485C8.31809 10.0597 8.34348 10.0686 8.36954 10.0752C8.49812 10.0839 8.61835 10.142 8.70516 10.2373C8.79196 10.3325 8.83863 10.4576 8.83543 10.5865C8.83543 10.697 8.87933 10.803 8.95748 10.8811C9.03563 10.9593 9.14163 11.0032 9.25215 11.0032C9.36267 11.0032 9.46866 10.9593 9.54681 10.8811C9.62496 10.803 9.66887 10.697 9.66887 10.5865C9.67799 10.3437 9.61672 10.1034 9.49243 9.89459C9.36815 9.6858 9.18615 9.51739 8.96836 9.40965C9.51985 8.77297 9.88488 7.99642 10.0232 7.16555C10.1616 6.33467 10.0679 5.48173 9.75255 4.70069C9.43716 3.91965 8.91229 3.24083 8.23578 2.73901C7.55926 2.23719 6.75735 1.93185 5.9184 1.85664ZM1.75122 6.41929C1.75122 5.67752 1.97118 4.9524 2.38329 4.33564C2.7954 3.71888 3.38114 3.23818 4.06645 2.95431C4.75175 2.67045 5.50585 2.59618 6.23337 2.74089C6.96088 2.8856 7.62915 3.2428 8.15366 3.76731C8.67817 4.29182 9.03537 4.96009 9.18009 5.68761C9.3248 6.41513 9.25053 7.16922 8.96666 7.85453C8.6828 8.53983 8.20209 9.12558 7.58533 9.53768C6.96857 9.94979 6.24346 10.1697 5.50169 10.1697C4.50737 10.1685 3.55413 9.77301 2.85105 9.06992C2.14796 8.36684 1.75244 7.4136 1.75122 6.41929Z" fill="white"/>
<path d="M8.50656 1.00157C8.39604 1.00157 8.29005 1.04547 8.2119 1.12362C8.13375 1.20177 8.08984 1.30777 8.08984 1.41829C8.08984 1.52881 8.13375 1.6348 8.2119 1.71295C8.29005 1.7911 8.39604 1.835 8.50656 1.835C8.65187 1.82396 8.79792 1.84245 8.93589 1.88938C9.07386 1.9363 9.2009 2.01068 9.30935 2.10803C9.41779 2.20538 9.5054 2.32368 9.56689 2.45581C9.62838 2.58793 9.66248 2.73114 9.66712 2.8768C9.66712 2.98732 9.71102 3.09331 9.78917 3.17146C9.86732 3.24961 9.97332 3.29352 10.0838 3.29352C10.1944 3.29352 10.3004 3.24961 10.3785 3.17146C10.4567 3.09331 10.5006 2.98732 10.5006 2.8768C10.4952 2.62197 10.4391 2.37077 10.3355 2.13789C10.232 1.905 10.083 1.69511 9.89731 1.5205C9.71163 1.34589 9.493 1.21005 9.2542 1.12095C9.0154 1.03185 8.76123 0.991261 8.50656 1.00157Z" fill="white"/>
<path d="M1.33344 2.8768C1.33808 2.73114 1.37218 2.58793 1.43366 2.45581C1.49515 2.32368 1.58276 2.20538 1.69121 2.10803C1.79966 2.01068 1.9267 1.9363 2.06467 1.88938C2.20264 1.84245 2.34868 1.82396 2.494 1.835C2.60452 1.835 2.71051 1.7911 2.78866 1.71295C2.86681 1.6348 2.91071 1.52881 2.91071 1.41829C2.91071 1.30777 2.86681 1.20177 2.78866 1.12362C2.71051 1.04547 2.60452 1.00157 2.494 1.00157C2.23932 0.991261 1.98515 1.03185 1.74635 1.12095C1.50756 1.21005 1.28892 1.34589 1.10325 1.5205C0.917579 1.69511 0.768594 1.905 0.665012 2.13789C0.561431 2.37077 0.505332 2.62197 0.5 2.8768C0.5 2.98732 0.543904 3.09331 0.622054 3.17146C0.700204 3.24961 0.806197 3.29352 0.916718 3.29352C1.02724 3.29352 1.13323 3.24961 1.21138 3.17146C1.28953 3.09331 1.33344 2.98732 1.33344 2.8768Z" fill="white"/>
<path d="M5.91742 5.82974V3.91867C5.91742 3.80815 5.87352 3.70216 5.79537 3.62401C5.71722 3.54586 5.61122 3.50195 5.5007 3.50195C5.39018 3.50195 5.28419 3.54586 5.20604 3.62401C5.12789 3.70216 5.08398 3.80815 5.08398 3.91867V6.00226C5.08401 6.11277 5.12793 6.21875 5.20608 6.29688L6.45624 7.54703C6.53484 7.62294 6.6401 7.66495 6.74936 7.664C6.85862 7.66305 6.96314 7.61922 7.04041 7.54196C7.11767 7.4647 7.1615 7.36018 7.16244 7.25092C7.16339 7.14165 7.12139 7.03639 7.04548 6.9578L5.91742 5.82974Z" fill="white"/>
</svg>
