<svg width="40" height="40" viewBox="0 0 40 40" fill="none" xmlns="http://www.w3.org/2000/svg">
<circle cx="20" cy="20" r="20" fill="white" fill-opacity="0.1"/>
<path d="M28.4851 27.2635L12.9288 11.7071C12.5383 11.3166 11.9051 11.3166 11.5146 11.7071C11.124 12.0976 11.124 12.7308 11.5146 13.1213L27.0709 28.6777C27.4614 29.0682 28.0946 29.0682 28.4851 28.6777C28.8757 28.2871 28.8757 27.654 28.4851 27.2635Z" fill="white"/>
<path d="M27.0709 11.7071L11.5146 27.2635C11.1241 27.654 11.1241 28.2872 11.5146 28.6777C11.9051 29.0682 12.5383 29.0682 12.9288 28.6777L28.4852 13.1213C28.8757 12.7308 28.8757 12.0977 28.4852 11.7071C28.0946 11.3166 27.4615 11.3166 27.0709 11.7071Z" fill="white"/>
</svg>
