<svg width="159" height="101" viewBox="0 0 159 101" fill="none" xmlns="http://www.w3.org/2000/svg">
<g clip-path="url(#clip0_825_726)">
<path fill-rule="evenodd" clip-rule="evenodd" d="M-1.1438 16.6345C24.1449 5.72151 51.2918 0.0702529 78.7234 0.0082467C105.931 0.000983873 132.855 5.67947 157.856 16.6979C157.856 16.6979 124.737 4.07878 78.7234 4.07878C32.7095 4.07878 -1.1438 16.6345 -1.1438 16.6345ZM-1.1438 84.3679C24.1451 95.2796 51.292 100.93 78.7234 100.991C105.931 100.999 132.855 95.3205 157.856 84.3021C157.856 84.3021 124.745 96.9201 78.7234 96.9201C32.7015 96.9201 -1.1438 84.3679 -1.1438 84.3679Z" fill="#D50058"/>
<path fill-rule="evenodd" clip-rule="evenodd" d="M29.8553 43.4193C26.7437 41.6281 23.2418 40.6731 19.6747 40.643C17.8756 40.5537 16.0784 40.8547 14.4002 41.5262C13.89 41.6928 13.4414 42.0152 13.1144 42.4504C12.7874 42.8856 12.5974 43.413 12.57 43.9619C12.5935 44.5238 12.7987 45.0616 13.1531 45.4904C13.5076 45.9191 13.991 46.2144 14.5272 46.3296C16.0078 46.7876 17.5419 47.0384 19.0879 47.0753C22.1916 47.3016 24.2395 47.482 25.2317 47.6167C27.468 47.8034 29.6181 48.5863 31.4693 49.888C32.1413 50.4546 32.6739 51.1756 33.0243 51.9927C33.3746 52.8098 33.5328 53.7001 33.4859 54.5916C33.5235 55.7943 33.2496 56.9856 32.6922 58.0441C32.1347 59.1026 31.3136 59.9902 30.3128 60.6164C27.5437 62.2024 24.3895 62.9394 21.2246 62.7397C15.493 62.7397 11.0349 61.3629 7.85034 58.6093L9.89675 55.6732C13.2618 57.9708 17.2143 59.1935 21.2555 59.1871C23.3573 59.2983 25.4546 58.8929 27.373 58.0044C27.981 57.742 28.5014 57.3036 28.8707 56.7426C29.24 56.1815 29.4422 55.5223 29.4526 54.8453C29.4434 54.0744 29.1611 53.3334 28.6583 52.7608C28.1556 52.1882 27.4669 51.8232 26.721 51.7342C24.1773 51.2706 21.6055 50.9877 19.0238 50.8875C16.3516 50.8548 13.7092 50.3071 11.234 49.2726C10.3927 48.826 9.69738 48.136 9.23405 47.2879C8.77072 46.4398 8.55968 45.4709 8.62704 44.501C8.60621 43.4045 8.86903 42.322 9.3887 41.3638C9.90837 40.4057 10.6663 39.6062 11.5851 39.047C14.1272 37.5691 17.0306 36.8759 19.9469 37.0505C24.2746 36.8936 28.5376 38.1628 32.1121 40.6724L29.8553 43.4193ZM61.6015 41.3207H50.8627V62.1678H47.1382V41.323H36.404V37.6635H61.6004V41.3207H61.6015ZM87.8205 62.1678H83.7517L81.1688 56.6844H66.026L63.434 62.1678H59.3675L71.2525 37.6659H75.9424L87.8205 62.1678ZM79.3557 53.0308L73.6191 41.1633L67.8254 53.0308H79.35H79.3557ZM106.409 37.6647C108.1 37.5728 109.793 37.8266 111.389 38.4112C112.984 38.9958 114.451 39.8997 115.704 41.0705C116.861 42.2625 117.764 43.6893 118.353 45.2598C118.943 46.8303 119.207 48.5098 119.129 50.191C119.167 51.8283 118.862 53.4549 118.235 54.961C117.609 56.4671 116.675 57.8177 115.497 58.9217C113.229 61.0942 110.218 62.2618 107.118 62.1713H92.197V37.6682H106.409V37.6647ZM107.432 58.5118C108.461 58.545 109.484 58.3519 110.433 57.9453C111.383 57.5387 112.236 56.9282 112.937 56.1547C114.401 54.5042 115.175 52.3292 115.093 50.0983C115.143 48.9342 114.965 47.7716 114.568 46.68C114.171 45.5884 113.563 44.5901 112.782 43.7447C111.988 42.9362 111.039 42.3049 109.996 41.89C108.953 41.4751 107.837 41.2857 106.72 41.3336H95.9203V58.5224H107.435L107.432 58.5118ZM149.231 62.1713H145.165L142.575 56.6832H127.437L124.849 62.1666H120.78L132.668 37.6647H137.352L149.231 62.1713ZM140.761 53.0343L135.03 41.1633L129.236 53.0308H140.758L140.761 53.0343Z" fill="#005DB9"/>
</g>
<defs>
<clipPath id="clip0_825_726">
<rect width="159" height="101" fill="white"/>
</clipPath>
</defs>
</svg>
